# AST/ASF file generated using VICON BodyLanguage
# -----------------------------------------------
:version 1.10
:name VICON
:units
  mass 1.0
  length 0.45
  angle deg
:documentation
   .ast/.asf automatically generated from VICON data using
   VICON BodyBuilder and BodyLanguage model FoxedUp or BRILLIANT.MOD
:root
   order TX TY TZ RX RY RZ
   axis XYZ
   position 0 0 0  
   orientation 0 0 0 
:bonedata
  begin
     id 1 
     name lhipjoint
     direction 0.693937 -0.600361 0.397515 
     length 2.37164 
     axis 0 0 0  XYZ
  end
  begin
     id 2 
     name lfemur
     direction 0.34202 -0.939693 0  
     length 6.18497  
     axis 0 0 20  XYZ
    dof rx ry rz
    limits (-160.0 20.0)
           (-70.0 70.0)
           (-60.0 70.0)
  end
  begin
     id 3 
     name ltibia
     direction 0.34202 -0.939693 0   
     length 6.91601   
     axis 0 0 20   XYZ
    dof rx
    limits (-10.0 170.0)
  end
  begin
     id 4 
     name lfoot
     direction 0.0978718 -0.2689 0.958182   
     length 1.81453   
     axis -90 7.62852e-016 20   XYZ
    dof rx rz
    limits (-45.0 90.0)
           (-70.0 20.0)
  end
  begin
     id 5 
     name ltoes
     direction 1.53569e-011 -4.21951e-011 1   
     length 0.912052   
     axis -90 7.62852e-016 20   XYZ
    dof rx
    limits (-90.0 20.0)
  end
  begin
     id 6 
     name rhipjoint
     direction -0.643996 -0.637876 0.422354   
     length 2.23216  
     axis 0 0 0  XYZ 
  end
  begin
     id 7 
     name rfemur
     direction -0.34202 -0.939693 0   
     length 6.15404   
     axis 0 0 -20   XYZ
    dof rx ry rz
    limits (-160.0 20.0)
           (-70.0 70.0)
           (-70.0 60.0)
  end
  begin
     id 8 
     name rtibia
     direction -0.34202 -0.939693 0   
     length 6.86744   
     axis 0 0 -20   XYZ
    dof rx
    limits (-10.0 170.0)
 end
 begin
     id 9 
     name rfoot
     direction -0.118701 -0.326127 0.937844   
     length 1.9243  
     axis -90 -7.62852e-016 -20   XYZ
    dof rx rz
    limits (-45.0 90.0)
           (-20.0 70.0)
  end
  begin
     id 10 
     name rtoes
     direction -1.5356e-011 -4.2181e-011 1   
     length 0.958865   
     axis -90 -7.62852e-016 -20   XYZ
    dof rx
    limits (-90.0 20.0)
  end
  begin
     id 11 
     name lowerback
     direction 0.0310826 0.968686 -0.246334   
     length 2.00021   
     axis 0 0 0   XYZ
    dof rx ry rz
    limits (-20.0 45.0)
           (-30.0 30.0)
           (-30.0 30.0)
  end
  begin
     id 12 
     name upperback
     direction -0.0152834 0.999474 -0.0286152   
     length 2.03728   
     axis 0 0 0   XYZ
    dof rx ry rz
    limits (-20.0 45.0)
           (-30.0 30.0)
           (-30.0 30.0)
  end
  begin
     id 13 
     name thorax
     direction -0.0323701 0.996236 0.0804149   
     length 2.16   
     axis 0 0 0   XYZ
    dof rx ry rz
    limits (-20.0 45.0)
           (-30.0 30.0)
           (-30.0 30.0)
  end
  begin
     id 14 
     name lowerneck
     direction 0.0307935 0.982251 0.185027   
     length 1.43558   
     axis 0 0 0   XYZ
    dof rx ry rz
    limits (-20.0 45.0)
           (-30.0 30.0)
           (-30.0 30.0)
  end
  begin
     id 15 
     name upperneck
     direction -0.0927153 0.994775 0.0427454   
     length 1.44603   
     axis 0 0 0   XYZ
    dof rx ry rz
    limits (-20.0 45.0)
           (-30.0 30.0)
           (-30.0 30.0)
  end
  begin
     id 16
     name head
     direction -0.0341265 0.999406 -0.00472033  
     length 1.45931  
     axis 0 0 0   XYZ
    dof rx ry rz
    limits (-20.0 45.0)
           (-30.0 30.0)
           (-30.0 30.0)
  end
  begin
     id 17 
     name lclavicle
     direction 0.820755 0.555306 -0.134151  
     length 2.66075  
     axis 0 0 0   XYZ
    dof ry rz
    limits (-20.0 10.0)
           (0.0 20.0)
  end
  begin
     id 18 
     name lhumerus
     direction 1 -4.48971e-011 5.24853e-027   
     length 5.0546   
     axis -180 -30 -90   XYZ
    dof rx ry rz
    limits (-60.0 90.0)
           (-90.0 90.0)
           (-90.0 90.0)
  end
  begin
     id 19
     name lradius
     direction 1 -4.48971e-011 2.76575e-028   
     length 3.39013   
     axis -180 -30 -90   XYZ
    dof rx
    limits (-10.0 170.0)
  end
  begin
     id 20
     name lwrist
     direction 1 -4.48939e-011 -2.27826e-027   
     length 1.69507   
     axis 2.17013e-015 90 90   XYZ
    dof ry
    limits (-180.0 0.0)
 end
  begin
     id 21 
     name lhand
     direction 1 -4.49009e-011 -4.55652e-027   
     length 0.572425   
     axis 2.90745e-015 90 90   XYZ
    dof rx rz
    limits (-90.0 90.0)
           (-45.0 45.0)
  end
  begin
     id 22 
     name lfingers
     direction 1 -4.48955e-011 -9.11303e-027   
     length 0.461504   
     axis 5.81489e-015 90 90   XYZ
    dof rx
    limits (0.0 90.0)
  end
  begin
     id 23
     name lthumb
     direction 0.707107 -6.34929e-011 0.707107   
     length 0.66263   
     axis -90 45 2.85299e-015   XYZ
    dof rx rz
    limits (-45.0 45.0)
           (-45.0 45.0)
  end
  begin
     id 24 
     name rclavicle
     direction -0.754477 0.632921 -0.173712   
     length 2.73081  
     axis 0 0 0   XYZ 
    dof ry rz
    limits (-10.0 20.0)
           (-20.0 0.0)
  end
  begin
     id 25 
     name rhumerus
     direction -1 -4.48969e-011 5.1496e-027  
     length 5.0701   
     axis -180 30 90   XYZ
    dof rx ry rz
    limits (-90.0 60.0)
           (-90.0 90.0)
           (-90.0 90.0)
  end
  begin
     id 26 
     name rradius
     direction -1 -4.48967e-011 -7.15624e-028   
     length 3.14957   
     axis -180 30 90   XYZ
    dof rx
    limits (-10.0 170.0)
  end
  begin
     id 27 
     name rwrist
     direction -1 -4.48938e-011 -2.27826e-027   
     length 1.57479   
     axis 2.17013e-015 -90 -90   XYZ
    dof ry
    limits (-180.0 0.0)
  end
  begin
     id 28
     name rhand
     direction -1 -4.49008e-011 -4.55652e-027   
     length 0.718191   
     axis 2.90745e-015 -90 -90   XYZ
    dof rx rz
    limits (-90.0 90.0)
           (-45.0 45.0)
  end
  begin
     id 29
     name rfingers
     direction -1 -4.48953e-011 -9.11303e-027   
     length 0.579024   
     axis 5.81489e-015 -90 -90   XYZ
    dof rx
    limits (0.0 90.0)
  end
  begin
     id 30
     name rthumb
     direction -0.707107 -6.34937e-011 0.707107   
     length 0.831366   
     axis -90 -45 -2.85299e-015   XYZ
    dof rx rz
    limits (-45.0 45.0)
           (-45.0 45.0)
  end
:hierarchy
  begin
    root lhipjoint rhipjoint lowerback
    lhipjoint lfemur
    lfemur ltibia
    ltibia lfoot
    lfoot ltoes
    rhipjoint rfemur
    rfemur rtibia
    rtibia rfoot
    rfoot rtoes
    lowerback upperback
    upperback thorax
    thorax lowerneck lclavicle rclavicle
    lowerneck upperneck
    upperneck head
    lclavicle lhumerus
    lhumerus lradius
    lradius lwrist
    lwrist lhand lthumb
    lhand lfingers
    rclavicle rhumerus
    rhumerus rradius
    rradius rwrist
    rwrist rhand rthumb
    rhand rfingers
  end

#!OML:ASF H:\Male1\Project 1\Capture day 1\Session 1\Male1.ASF
:FULLY-SPECIFIED
:DEGREES
105
root -20.3058 15.6752 1.93045 180.7 6.72568 -181.813
lowerback 13.0387 -1.48157 -8.52808
upperback 5.96573 -1.78058 -6.74942
thorax -0.87193 -0.385715 -2.06223
lowerneck -4.43169 -0.583616 1.00745
upperneck -2.07029 -0.502265 7.12352
head 0.122181 -0.0956104 2.04617
rclavicle -4.77083e-015 6.36111e-015
rhumerus -53.0158 31.3029 -83.9514
rradius 89.0027
rwrist -22.7096
rhand -26.4951 5.68716
rfingers 7.12502
rthumb 0.0675244 -24.2926
lclavicle -4.77083e-015 6.36111e-015
lhumerus -44.1731 -8.20054 53.0521
lradius 71.411
lwrist 26.0586
lhand -35.8354 18.2368
lfingers 7.12502
lthumb -8.95093 48.0269
rfemur -15.9988 -11.9792 33.0102
rtibia 43.3116
rfoot 3.01267 -6.76026
rtoes -21.2882
lfemur -9.44378 -7.21594 -9.44324
ltibia 35.9707
lfoot -6.48188 25.7565
ltoes 0.389104
106
root -20.0038 15.9687 1.83441 180.225 7.60604 -180.869
lowerback 12.5662 -1.35135 -7.97328
upperback 6.08893 -1.47176 -6.9144
thorax -0.521539 -0.230733 -2.58666
lowerneck -4.33279 -0.458066 1.41521
upperneck -2.1213 -0.352818 6.75733
head 0.0810631 -0.0314281 1.85732
rclavicle -7.95139e-015 -1.59028e-014
rhumerus -55.6065 31.0977 -84.3028
rradius 89.3593
rwrist -23.0301
rhand -26.5743 5.77783
rfingers 7.12502
rthumb -0.0089583 -24.2019
lclavicle -7.95139e-015 -1.59028e-014
lhumerus -45.4592 -9.2984 52.2642
lradius 73.1041
lwrist 26.1282
lhand -36.224 17.6803
lfingers 7.12502
lthumb -9.32596 47.454
rfemur -13.4631 -11.063 32.719
rtibia 39.8435
rfoot 9.71636 -4.95096
rtoes -14.3593
lfemur -8.02566 -9.22167 -9.48753
ltibia 35.7489
lfoot -11.5796 28.8657
ltoes 9.99272
107
root -19.6926 16.2752 1.75409 180.478 8.5243 -181.055
lowerback 11.6535 -1.16685 -8.3218
upperback 5.87821 -1.17997 -7.19832
thorax -0.243738 -0.0970529 -2.73242
lowerneck -4.462 -0.327356 1.08364
upperneck -1.73663 -0.19637 7.038
head 0.220458 0.0612836 2.0102
rclavicle 1.03368e-014 7.31528e-014
rhumerus -58.6419 31.1974 -84.564
rradius 90.0743
rwrist -24.1215
rhand -27.537 5.29675
rfingers 7.12502
rthumb -0.938746 -24.6809
lclavicle 1.03368e-014 7.31528e-014
lhumerus -46.85 -10.4461 51.9785
lradius 74.6843
lwrist 26.3345
lhand -36.199 17.0834
lfingers 7.12502
lthumb -9.3018 46.8582
rfemur -12.4575 -9.12714 31.5343
rtibia 37.8242
rfoot 12.3735 -2.67338
rtoes -22.9265
lfemur -8.15383 -9.67505 -10.8154
ltibia 36.1377
lfoot -8.51278 30.0506
ltoes 3.0685
108
root -19.3915 16.537 1.69958 180.143 9.14831 -180.026
lowerback 11.78 -1.03931 -7.38146
upperback 6.00728 -0.952692 -7.04493
thorax -0.212173 0.0148796 -3.11641
lowerneck -4.90585 -0.14662 0.765529
upperneck -1.45817 0.020173 7.03217
head 0.376748 0.182961 2.0711
rclavicle 9.54166e-015 6.67916e-014
rhumerus -61.211 30.3403 -84.7845
rradius 90.5322
rwrist -24.577
rhand -27.7913 5.86614
rfingers 7.12502
rthumb -1.18436 -24.1103
lclavicle 9.54166e-015 6.67916e-014
lhumerus -47.972 -11.4349 51.9828
lradius 76.1112
lwrist 26.6881
lhand -35.7624 16.4708
lfingers 7.12502
lthumb -8.88056 46.2639
rfemur -11.2156 -7.20927 31.5781
rtibia 37.3193
rfoot 11.5706 -1.97861
rtoes -19.9247
lfemur -7.88574 -9.36267 -10.8561
ltibia 36.7832
lfoot -9.58567 27.9651
ltoes 4.02553
109
root -19.092 16.7698 1.67033 179.928 9.72637 -180.017
lowerback 12.0712 -0.868115 -7.50436
upperback 6.0328 -0.765533 -6.97126
thorax -0.337777 0.108826 -2.9932
lowerneck -5.06109 0.135385 0.180931
upperneck -1.70825 0.446593 7.22677
head 0.311335 0.398666 2.24673
rclavicle -8.74653e-015 6.99722e-014
rhumerus -63.8279 29.7072 -84.8838
rradius 90.9839
rwrist -25.2067
rhand -27.9979 4.2303
rfingers 7.12502
rthumb -1.38385 -25.745
lclavicle -8.74653e-015 6.99722e-014
lhumerus -48.905 -12.2037 52.2872
lradius 77.3048
lwrist 27.0076
lhand -35.0912 16.0541
lfingers 7.12502
lthumb -8.23283 45.8737
rfemur -10.7271 -4.98596 30.7627
rtibia 37.7993
rfoot 7.25425 -5.61501
rtoes -32.3317
lfemur -8.24684 -8.26162 -11.9237
ltibia 37.3405
lfoot -7.66954 22.8327
ltoes -5.69698
